Rokkitt-Medium.ufo
<glyph name="quotesingle" format="1">
  <advance width="373"/>
  <unicode hex="0027"/>
  <outline>
    <contour>
      <point x="153" y="824" type="line"/>
      <point x="229" y="824" type="line"/>
      <point x="259" y="1238" type="line"/>
      <point x="117" y="1238" type="line"/>
    </contour>
  </outline>
</glyph>
<glyph name="zero" format="1">
  <advance width="1096"/>
  <unicode hex="0030"/>
  <outline>
    <contour>
      <point x="547" y="72" type="curve" smooth="yes"/>
      <point x="546.451" y="71.9971"/>
      <point x="545.902" y="71.9957"/>
      <point x="545.354" y="71.9957" type="curve" smooth="yes"/>
      <point x="356.411" y="71.9957"/>
      <point x="255" y="243.928"/>
      <point x="255" y="564" type="curve" smooth="yes"/>
      <point x="255" y="899"/>
      <point x="357" y="1080"/>
      <point x="547" y="1080" type="curve" smooth="yes"/>
      <point x="738" y="1080"/>
      <point x="841" y="900"/>
      <point x="841" y="564" type="curve" smooth="yes"/>
      <point x="841" y="244"/>
      <point x="738" y="72"/>
    </contour>
    <contour>
      <point x="547" y="-22" type="curve" smooth="yes"/>
      <point x="827" y="-22"/>
      <point x="972" y="184"/>
      <point x="972" y="564" type="curve" smooth="yes"/>
      <point x="972" y="945"/>
      <point x="827" y="1174"/>
      <point x="547" y="1174" type="curve" smooth="yes"/>
      <point x="268" y="1174"/>
      <point x="124" y="944"/>
      <point x="124" y="564" type="curve" smooth="yes"/>
      <point x="124" y="184"/>
      <point x="268" y="-22"/>
    </contour>
  </outline>
</glyph>
<glyph name="two" format="1">
  <advance width="1003"/>
  <unicode hex="0032"/>
  <outline>
    <contour>
      <point x="128" y="0" type="line"/>
      <point x="876" y="0" type="line"/>
      <point x="875" y="315" type="line"/>
      <point x="768" y="315" type="line"/>
      <point x="768" y="103" type="line"/>
      <point x="284" y="103" type="line"/>
      <point x="584" y="402" type="line" smooth="yes"/>
      <point x="736" y="554"/>
      <point x="870" y="691"/>
      <point x="870" y="842" type="curve" smooth="yes"/>
      <point x="870" y="1044"/>
      <point x="736" y="1174"/>
      <point x="501" y="1174" type="curve" smooth="yes"/>
      <point x="273" y="1174"/>
      <point x="130" y="1041"/>
      <point x="130" y="839" type="curve" smooth="yes"/>
      <point x="130" y="799"/>
      <point x="138" y="752"/>
      <point x="152" y="706" type="curve"/>
      <point x="267" y="706" type="line"/>
      <point x="257" y="753"/>
      <point x="251" y="794"/>
      <point x="251" y="825" type="curve" smooth="yes"/>
      <point x="251" y="980"/>
      <point x="349" y="1066"/>
      <point x="502" y="1066" type="curve" smooth="yes"/>
      <point x="664.263" y="1066"/>
      <point x="740.063" y="966.711"/>
      <point x="740.063" y="835.68" type="curve" smooth="yes"/>
      <point x="740.063" y="733.758"/>
      <point x="636.088" y="619.088"/>
      <point x="501" y="484" type="curve"/>
      <point x="128" y="105" type="line"/>
    </contour>
  </outline>
</glyph>
<glyph name="three" format="1">
  <advance width="1022"/>
  <unicode hex="0033"/>
  <outline>
    <contour>
      <point x="414" y="553" type="line"/>
      <point x="663.118" y="553"/>
      <point x="779.108" y="482.496"/>
      <point x="779.108" y="326.441" type="curve" smooth="yes"/>
      <point x="779.108" y="172.632"/>
      <point x="672.8" y="82"/>
      <point x="499" y="82" type="curve" smooth="yes"/>
      <point x="356" y="82"/>
      <point x="251" y="150"/>
      <point x="196" y="273" type="curve"/>
      <point x="94" y="215" type="line"/>
      <point x="148" y="69"/>
      <point x="300" y="-21"/>
      <point x="498" y="-21" type="curve" smooth="yes"/>
      <point x="757" y="-21"/>
      <point x="912" y="114"/>
      <point x="912" y="337" type="curve" smooth="yes"/>
      <point x="912" y="488"/>
      <point x="811" y="578"/>
      <point x="642" y="608" type="curve"/>
      <point x="792" y="637"/>
      <point x="881" y="732"/>
      <point x="881" y="871" type="curve" smooth="yes"/>
      <point x="881" y="1056"/>
      <point x="730" y="1174"/>
      <point x="485" y="1174" type="curve" smooth="yes"/>
      <point x="296" y="1174"/>
      <point x="151" y="1086"/>
      <point x="88" y="940" type="curve"/>
      <point x="191" y="891" type="line"/>
      <point x="235" y="1005"/>
      <point x="340" y="1072"/>
      <point x="483" y="1072" type="curve" smooth="yes"/>
      <point x="650" y="1072"/>
      <point x="753" y="993"/>
      <point x="753" y="870" type="curve" smooth="yes"/>
      <point x="753" y="732"/>
      <point x="655" y="654"/>
      <point x="414" y="654" type="curve"/>
    </contour>
  </outline>
</glyph>
<glyph name="six" format="1">
  <advance width="919"/>
  <unicode hex="0036"/>
  <outline>
    <contour>
      <point x="463" y="-20" type="curve" smooth="yes"/>
      <point x="707" y="-20"/>
      <point x="852" y="133"/>
      <point x="852" y="363" type="curve" smooth="yes"/>
      <point x="852" y="577"/>
      <point x="697" y="718"/>
      <point x="500" y="718" type="curve" smooth="yes"/>
      <point x="391" y="718"/>
      <point x="302" y="659"/>
      <point x="274" y="631" type="curve"/>
      <point x="634" y="1177" type="line"/>
      <point x="528" y="1247" type="line"/>
      <point x="168" y="683" type="line"/>
      <point x="96" y="575"/>
      <point x="67" y="468"/>
      <point x="67" y="342" type="curve" smooth="yes"/>
      <point x="67" y="127"/>
      <point x="234" y="-20"/>
    </contour>
    <contour>
      <point x="466" y="79" type="curve" smooth="yes"/>
      <point x="297" y="79"/>
      <point x="203" y="196"/>
      <point x="203" y="346" type="curve" smooth="yes"/>
      <point x="203" y="522"/>
      <point x="333" y="620"/>
      <point x="476" y="620" type="curve" smooth="yes"/>
      <point x="635" y="620"/>
      <point x="730" y="515"/>
      <point x="730" y="354" type="curve" smooth="yes"/>
      <point x="730" y="190"/>
      <point x="629" y="79"/>
    </contour>
  </outline>
</glyph>
<glyph name="D" format="1">
  <advance width="1408"/>
  <unicode hex="0044"/>
  <outline>
    <contour>
      <point x="177" y="93" type="line"/>
      <point x="92" y="93" type="line"/>
      <point x="92" y="0" type="line"/>
      <point x="735" y="0" type="line" smooth="yes"/>
      <point x="1112" y="0"/>
      <point x="1301" y="262"/>
      <point x="1301" y="584" type="curve" smooth="yes"/>
      <point x="1301" y="860"/>
      <point x="1120" y="1152"/>
      <point x="732" y="1152" type="curve" smooth="yes"/>
      <point x="92" y="1152" type="line"/>
      <point x="92" y="1059" type="line"/>
      <point x="256" y="1059" type="line"/>
      <point x="256" y="94" type="line"/>
      <point x="177" y="94" type="line"/>
    </contour>
    <contour>
      <point x="398" y="1059" type="line"/>
      <point x="727" y="1059" type="line" smooth="yes"/>
      <point x="1022" y="1059"/>
      <point x="1156" y="818"/>
      <point x="1156" y="581" type="curve" smooth="yes"/>
      <point x="1156" y="319"/>
      <point x="1024" y="94"/>
      <point x="720" y="94" type="curve" smooth="yes"/>
      <point x="398" y="94" type="line"/>
    </contour>
  </outline>
</glyph>
<glyph name="F" format="1">
  <advance width="1124"/>
  <unicode hex="0046"/>
  <outline>
    <contour>
      <point x="957" y="801" type="line"/>
      <point x="1067" y="801" type="line"/>
      <point x="1067" y="1152" type="line"/>
      <point x="90" y="1152" type="line"/>
      <point x="90" y="1059" type="line"/>
      <point x="254" y="1059" type="line"/>
      <point x="254" y="93" type="line"/>
      <point x="90" y="93" type="line"/>
      <point x="90" y="0" type="line"/>
      <point x="559" y="0" type="line"/>
      <point x="559" y="93" type="line"/>
      <point x="396" y="93" type="line"/>
      <point x="396" y="548" type="line"/>
      <point x="775" y="548" type="line"/>
      <point x="775" y="403" type="line"/>
      <point x="850" y="403" type="line"/>
      <point x="850" y="781" type="line"/>
      <point x="775" y="781" type="line"/>
      <point x="775" y="647" type="line"/>
      <point x="396" y="647" type="line"/>
      <point x="396" y="1059" type="line"/>
      <point x="957" y="1059" type="line"/>
    </contour>
  </outline>
</glyph>
<glyph name="G" format="1">
  <advance width="1400"/>
  <unicode hex="0047"/>
  <outline>
    <contour>
      <point x="725" y="-20" type="curve" smooth="yes"/>
      <point x="1017" y="-20"/>
      <point x="1294" y="119"/>
      <point x="1296" y="574" type="curve"/>
      <point x="911" y="574" type="line"/>
      <point x="911" y="475" type="line"/>
      <point x="1155" y="475" type="line"/>
      <point x="1150" y="193"/>
      <point x="943" y="88"/>
      <point x="731" y="85" type="curve" smooth="yes"/>
      <point x="438" y="85"/>
      <point x="255" y="279"/>
      <point x="255" y="588" type="curve" smooth="yes"/>
      <point x="255" y="884"/>
      <point x="437" y="1069"/>
      <point x="727" y="1069" type="curve" smooth="yes"/>
      <point x="915" y="1069"/>
      <point x="1066" y="977"/>
      <point x="1142" y="807" type="curve"/>
      <point x="1242" y="807" type="line"/>
      <point x="1242" y="1154" type="line"/>
      <point x="1127" y="1154" type="line"/>
      <point x="1127" y="995" type="line"/>
      <point x="1037" y="1107"/>
      <point x="895" y="1174"/>
      <point x="723" y="1174" type="curve" smooth="yes"/>
      <point x="354" y="1174"/>
      <point x="103" y="948"/>
      <point x="103" y="588" type="curve" smooth="yes"/>
      <point x="103" y="214"/>
      <point x="348" y="-20"/>
    </contour>
  </outline>
</glyph>
<glyph name="K" format="1">
  <advance width="1298"/>
  <unicode hex="004B"/>
  <outline>
    <contour>
      <point x="765" y="0" type="line"/>
      <point x="1235" y="0" type="line"/>
      <point x="1235" y="94" type="line"/>
      <point x="1078" y="94" type="line"/>
      <point x="543" y="583" type="line"/>
      <point x="1063" y="1059" type="line"/>
      <point x="1218" y="1059" type="line"/>
      <point x="1218" y="1152" type="line"/>
      <point x="759" y="1152" type="line"/>
      <point x="759" y="1059" type="line"/>
      <point x="897" y="1059" type="line"/>
      <point x="396" y="601" type="line"/>
      <point x="396" y="1059" type="line"/>
      <point x="559" y="1059" type="line"/>
      <point x="559" y="1152" type="line"/>
      <point x="90" y="1152" type="line"/>
      <point x="90" y="1059" type="line"/>
      <point x="254" y="1059" type="line"/>
      <point x="254" y="93" type="line"/>
      <point x="90" y="93" type="line"/>
      <point x="90" y="0" type="line"/>
      <point x="559" y="0" type="line"/>
      <point x="559" y="93" type="line"/>
      <point x="396" y="93" type="line"/>
      <point x="396" y="555" type="line"/>
      <point x="903" y="94" type="line"/>
      <point x="765" y="94" type="line"/>
    </contour>
  </outline>
</glyph>
<glyph name="Q" format="1">
  <advance width="1445"/>
  <unicode hex="0051"/>
  <outline>
    <component base="O"/>
    <contour>
      <point x="1186" y="-241" type="curve"/>
      <point x="1181" y="-147" type="line"/>
      <point x="1138.24" y="-158.376"/>
      <point x="1100.72" y="-163.558"/>
      <point x="1067.22" y="-163.558" type="curve" smooth="yes"/>
      <point x="929.911" y="-163.558"/>
      <point x="860.21" y="-76.5028"/>
      <point x="775" y="28" type="curve"/>
      <point x="651" y="29" type="line"/>
      <point x="767.425" y="-145.637"/>
      <point x="890.572" y="-257.757"/>
      <point x="1063.98" y="-257.757" type="curve" smooth="yes"/>
      <point x="1102.08" y="-257.757"/>
      <point x="1142.59" y="-252.347"/>
    </contour>
  </outline>
</glyph>
<glyph name="S" format="1">
  <advance width="1084"/>
  <unicode hex="0053"/>
  <outline>
    <contour>
      <point x="611" y="-20" type="curve" smooth="yes"/>
      <point x="879" y="-20"/>
      <point x="1001" y="147"/>
      <point x="1001" y="307" type="curve" smooth="yes"/>
      <point x="1001" y="569"/>
      <point x="818" y="613"/>
      <point x="589" y="647" type="curve" smooth="yes"/>
      <point x="403" y="672"/>
      <point x="275" y="706"/>
      <point x="275" y="863" type="curve" smooth="yes"/>
      <point x="275" y="984"/>
      <point x="358" y="1073"/>
      <point x="545" y="1073" type="curve" smooth="yes"/>
      <point x="687" y="1073"/>
      <point x="788" y="1016"/>
      <point x="821" y="938" type="curve"/>
      <point x="821" y="832" type="line"/>
      <point x="935" y="832" type="line"/>
      <point x="935" y="1155" type="line"/>
      <point x="821" y="1155" type="line"/>
      <point x="821" y="1063" type="line"/>
      <point x="762" y="1136"/>
      <point x="635" y="1174"/>
      <point x="531" y="1174" type="curve" smooth="yes"/>
      <point x="313" y="1174"/>
      <point x="148" y="1071"/>
      <point x="148" y="860" type="curve" smooth="yes"/>
      <point x="148" y="609"/>
      <point x="345" y="560"/>
      <point x="565" y="531" type="curve" smooth="yes"/>
      <point x="759" y="508"/>
      <point x="864" y="466"/>
      <point x="864" y="304" type="curve" smooth="yes"/>
      <point x="864" y="187"/>
      <point x="789" y="82"/>
      <point x="603" y="82" type="curve" smooth="yes"/>
      <point x="426" y="82"/>
      <point x="307" y="149"/>
      <point x="268" y="251" type="curve"/>
      <point x="268" y="389" type="line"/>
      <point x="152" y="389" type="line"/>
      <point x="152" y="-1" type="line"/>
      <point x="268" y="-1" type="line"/>
      <point x="268" y="120" type="line"/>
      <point x="334" y="25"/>
      <point x="457" y="-20"/>
    </contour>
  </outline>
</glyph>
<glyph name="T" format="1">
  <advance width="1144"/>
  <unicode hex="0054"/>
  <outline>
    <contour>
      <point x="52" y="757" type="line"/>
      <point x="159" y="757" type="line"/>
      <point x="159" y="1059" type="line"/>
      <point x="502" y="1059" type="line"/>
      <point x="502" y="93" type="line"/>
      <point x="338" y="93" type="line"/>
      <point x="338" y="0" type="line"/>
      <point x="807" y="0" type="line"/>
      <point x="807" y="93" type="line"/>
      <point x="644" y="93" type="line"/>
      <point x="644" y="1059" type="line"/>
      <point x="984" y="1059" type="line"/>
      <point x="984" y="757" type="line"/>
      <point x="1093" y="757" type="line"/>
      <point x="1093" y="1152" type="line"/>
      <point x="52" y="1152" type="line"/>
    </contour>
  </outline>
</glyph>
<glyph name="bracketleft" format="1">
  <advance width="525"/>
  <unicode hex="005B"/>
  <outline>
    <contour>
      <point x="167" y="-165" type="line"/>
      <point x="466" y="-165" type="line"/>
      <point x="466" y="-64" type="line"/>
      <point x="308" y="-64" type="line"/>
      <point x="308" y="1134" type="line"/>
      <point x="466" y="1134" type="line"/>
      <point x="466" y="1233" type="line"/>
      <point x="167" y="1233" type="line"/>
    </contour>
  </outline>
</glyph>
<glyph name="c" format="1">
  <advance width="959"/>
  <unicode hex="0063"/>
  <outline>
    <contour>
      <point x="190" y="409" type="curve" smooth="yes"/>
      <point x="190" y="594.998"/>
      <point x="320.297" y="724.152"/>
      <point x="505.39" y="724.152" type="curve" smooth="yes"/>
      <point x="637.091" y="724.152"/>
      <point x="733.585" y="649.92"/>
      <point x="756" y="532" type="curve"/>
      <point x="855" y="532" type="line"/>
      <point x="855" y="807" type="line"/>
      <point x="744" y="807" type="line"/>
      <point x="744" y="708" type="line"/>
      <point x="710" y="775"/>
      <point x="601" y="826"/>
      <point x="491" y="826" type="curve" smooth="yes"/>
      <point x="236" y="826"/>
      <point x="56" y="653"/>
      <point x="56" y="407" type="curve" smooth="yes"/>
      <point x="56" y="157"/>
      <point x="235" y="-20"/>
      <point x="488" y="-20" type="curve" smooth="yes"/>
      <point x="653" y="-20"/>
      <point x="773" y="44"/>
      <point x="855" y="145" type="curve"/>
      <point x="804" y="227" type="line"/>
      <point x="725.948" y="140.167"/>
      <point x="644.088" y="81.8907"/>
      <point x="501.768" y="81.8907" type="curve" smooth="yes"/>
      <point x="318.039" y="81.8907"/>
      <point x="190" y="215.802"/>
    </contour>
  </outline>
</glyph>
<glyph name="j" format="1">
  <advance width="487"/>
  <unicode hex="006A"/>
  <outline>
    <contour>
      <point x="264" y="989" type="curve" smooth="yes"/>
      <point x="320" y="989"/>
      <point x="363" y="1029"/>
      <point x="363" y="1081" type="curve" smooth="yes"/>
      <point x="363" y="1132"/>
      <point x="320" y="1172"/>
      <point x="264" y="1172" type="curve" smooth="yes"/>
      <point x="210" y="1172"/>
      <point x="168" y="1132"/>
      <point x="168" y="1081" type="curve" smooth="yes"/>
      <point x="168" y="1029"/>
      <point x="210" y="989"/>
    </contour>
    <contour>
      <point x="12" y="-297" type="line"/>
      <point x="98" y="-297" type="line" smooth="yes"/>
      <point x="355" y="-297"/>
      <point x="359" y="-147"/>
      <point x="359" y="11" type="curve" smooth="yes"/>
      <point x="359" y="804" type="line"/>
      <point x="65" y="804" type="line"/>
      <point x="65" y="712" type="line"/>
      <point x="228" y="712" type="line"/>
      <point x="228" y="-24" type="line" smooth="yes"/>
      <point x="228" y="-142"/>
      <point x="215" y="-196"/>
      <point x="93" y="-196" type="curve" smooth="yes"/>
      <point x="12" y="-196" type="line"/>
    </contour>
  </outline>
</glyph>
<glyph name="n" format="1">
  <advance width="1049"/>
  <unicode hex="006E"/>
  <outline>
    <contour>
      <point x="43" y="0" type="line"/>
      <point x="483" y="0" type="line"/>
      <point x="483" y="93" type="line"/>
      <point x="333" y="93" type="line"/>
      <point x="333" y="625" type="line"/>
      <point x="423" y="682"/>
      <point x="522" y="723"/>
      <point x="602" y="723" type="curve" smooth="yes"/>
      <point x="703" y="723"/>
      <point x="765" y="657"/>
      <point x="765" y="543" type="curve" smooth="yes"/>
      <point x="765" y="93" type="line"/>
      <point x="622" y="93" type="line"/>
      <point x="622" y="0" type="line"/>
      <point x="1043" y="0" type="line"/>
      <point x="1043" y="93" type="line"/>
      <point x="894" y="93" type="line"/>
      <point x="894" y="562" type="line" smooth="yes"/>
      <point x="894" y="731"/>
      <point x="781" y="826"/>
      <point x="635" y="826" type="curve" smooth="yes"/>
      <point x="538" y="826"/>
      <point x="433" y="782"/>
      <point x="333" y="718" type="curve"/>
      <point x="333" y="804" type="line"/>
      <point x="44" y="804" type="line"/>
      <point x="44" y="711" type="line"/>
      <point x="204" y="711" type="line"/>
      <point x="204" y="93" type="line"/>
      <point x="43" y="93" type="line"/>
    </contour>
  </outline>
</glyph>
<glyph name="q" format="1">
  <advance width="1079"/>
  <unicode hex="0071"/>
  <outline>
    <contour>
      <point x="604" y="-330" type="line"/>
      <point x="1029" y="-330" type="line"/>
      <point x="1029" y="-232" type="line"/>
      <point x="886" y="-232" type="line"/>
      <point x="886" y="711" type="line"/>
      <point x="1025" y="711" type="line"/>
      <point x="1025" y="804" type="line"/>
      <point x="760" y="804" type="line"/>
      <point x="757" y="722" type="line"/>
      <point x="671" y="788"/>
      <point x="559" y="825"/>
      <point x="454" y="825" type="curve" smooth="yes"/>
      <point x="236.213" y="825"/>
      <point x="57.9834" y="670.723"/>
      <point x="57.9834" y="404.458" type="curve" smooth="yes"/>
      <point x="57.9834" y="140.513"/>
      <point x="245.048" y="-22"/>
      <point x="472" y="-22" type="curve" smooth="yes"/>
      <point x="570" y="-22"/>
      <point x="673" y="13"/>
      <point x="756" y="78" type="curve"/>
      <point x="756" y="-232" type="line"/>
      <point x="604" y="-232" type="line"/>
    </contour>
    <contour>
      <point x="756" y="630" type="curve"/>
      <point x="756" y="170" type="line"/>
      <point x="678" y="112"/>
      <point x="582" y="77"/>
      <point x="498" y="77" type="curve" smooth="yes"/>
      <point x="325" y="77"/>
      <point x="192" y="194"/>
      <point x="192" y="393" type="curve" smooth="yes"/>
      <point x="192" y="604"/>
      <point x="312" y="727"/>
      <point x="478" y="727" type="curve" smooth="yes"/>
      <point x="568" y="727"/>
      <point x="670" y="691"/>
    </contour>
  </outline>
</glyph>
<glyph name="u" format="1">
  <advance width="1041"/>
  <unicode hex="0075"/>
  <outline>
    <contour>
      <point x="429" y="-20" type="curve" smooth="yes"/>
      <point x="539" y="-20"/>
      <point x="640" y="25"/>
      <point x="735" y="98" type="curve"/>
      <point x="740" y="0" type="line"/>
      <point x="1013" y="0" type="line"/>
      <point x="1013" y="93" type="line"/>
      <point x="863" y="93" type="line"/>
      <point x="863" y="804" type="line"/>
      <point x="588" y="804" type="line"/>
      <point x="588" y="711" type="line"/>
      <point x="734" y="711" type="line"/>
      <point x="734" y="198" type="line"/>
      <point x="651" y="127"/>
      <point x="563" y="82"/>
      <point x="457" y="82" type="curve" smooth="yes"/>
      <point x="345" y="82"/>
      <point x="296" y="154"/>
      <point x="296" y="253" type="curve" smooth="yes"/>
      <point x="296" y="804" type="line"/>
      <point x="25" y="804" type="line"/>
      <point x="25" y="711" type="line"/>
      <point x="167" y="711" type="line"/>
      <point x="167" y="240" type="line" smooth="yes"/>
      <point x="167" y="108"/>
      <point x="235" y="-20"/>
    </contour>
  </outline>
</glyph>
<glyph name="y" format="1">
  <advance width="1064"/>
  <unicode hex="0079"/>
  <outline>
    <contour>
      <point x="213" y="-308" type="line"/>
      <point x="314" y="-308" type="line" smooth="yes"/>
      <point x="506" y="-308"/>
      <point x="541" y="-231"/>
      <point x="610" y="-59" type="curve"/>
      <point x="925" y="711" type="line"/>
      <point x="1056" y="711" type="line"/>
      <point x="1056" y="804" type="line"/>
      <point x="649" y="804" type="line"/>
      <point x="649" y="711" type="line"/>
      <point x="796" y="711" type="line"/>
      <point x="564" y="134" type="line"/>
      <point x="309" y="711" type="line"/>
      <point x="434" y="711" type="line"/>
      <point x="434" y="804" type="line"/>
      <point x="24" y="804" type="line"/>
      <point x="24" y="711" type="line"/>
      <point x="177" y="711" type="line"/>
      <point x="479" y="53" type="line"/>
      <point x="536" y="53" type="line"/>
      <point x="489" y="-71" type="line"/>
      <point x="447" y="-188"/>
      <point x="410" y="-201"/>
      <point x="302" y="-201" type="curve" smooth="yes"/>
      <point x="213" y="-201" type="line"/>
    </contour>
  </outline>
</glyph>
<glyph name="dieresis" format="1">
  <advance width="500"/>
  <unicode hex="00A8"/>
  <outline>
    <contour>
      <point x="60" y="938" type="curve" smooth="yes"/>
      <point x="109" y="938"/>
      <point x="141" y="968"/>
      <point x="141" y="1016" type="curve" smooth="yes"/>
      <point x="141" y="1063"/>
      <point x="109" y="1093"/>
      <point x="60" y="1093" type="curve" smooth="yes"/>
      <point x="11" y="1093"/>
      <point x="-21" y="1063"/>
      <point x="-21" y="1016" type="curve" smooth="yes"/>
      <point x="-21" y="968"/>
      <point x="11" y="938"/>
    </contour>
    <contour>
      <point x="437" y="938" type="curve" smooth="yes"/>
      <point x="487" y="938"/>
      <point x="518" y="968"/>
      <point x="519" y="1016" type="curve" smooth="yes"/>
      <point x="519" y="1063"/>
      <point x="486" y="1093"/>
      <point x="437" y="1093" type="curve" smooth="yes"/>
      <point x="388" y="1093"/>
      <point x="357" y="1063"/>
      <point x="357" y="1016" type="curve" smooth="yes"/>
      <point x="357" y="968"/>
      <point x="388" y="938"/>
    </contour>
  </outline>
</glyph>
<glyph name="twosuperior" format="1">
  <advance width="941"/>
  <unicode hex="00B2"/>
  <outline>
    <contour>
      <point x="202" y="615" type="line"/>
      <point x="202" y="537" type="line"/>
      <point x="740" y="537" type="line"/>
      <point x="739" y="763" type="line"/>
      <point x="658" y="763" type="line"/>
      <point x="658" y="614" type="line"/>
      <point x="319" y="614" type="line"/>
      <point x="535" y="824" type="line" smooth="yes"/>
      <point x="632" y="919"/>
      <point x="726" y="1008"/>
      <point x="726" y="1125" type="curve" smooth="yes"/>
      <point x="726" y="1269"/>
      <point x="623" y="1354"/>
      <point x="461" y="1354" type="curve" smooth="yes"/>
      <point x="290" y="1354"/>
      <point x="195" y="1249"/>
      <point x="195" y="1110" type="curve" smooth="yes"/>
      <point x="195" y="1080"/>
      <point x="200" y="1049"/>
      <point x="209" y="1017" type="curve"/>
      <point x="295" y="1017" type="line"/>
      <point x="287" y="1046"/>
      <point x="284" y="1074"/>
      <point x="284" y="1099" type="curve" smooth="yes"/>
      <point x="284" y="1203"/>
      <point x="348" y="1273"/>
      <point x="461" y="1273" type="curve" smooth="yes"/>
      <point x="573.622" y="1273"/>
      <point x="630.011" y="1210.55"/>
      <point x="630.011" y="1123.17" type="curve" smooth="yes"/>
      <point x="630.011" y="1040.05"/>
      <point x="562.361" y="975.353"/>
      <point x="475" y="887" type="curve" smooth="yes"/>
    </contour>
  </outline>
</glyph>
<glyph name="paragraph" format="1">
  <advance width="1062"/>
  <unicode hex="00B6"/>
  <outline>
    <contour>
      <point x="498" y="-8" type="line"/>
      <point x="979" y="-8" type="line"/>
      <point x="979" y="87" type="line"/>
      <point x="834" y="87" type="line"/>
      <point x="834" y="1063" type="line"/>
      <point x="982" y="1063" type="line"/>
      <point x="982" y="1152" type="line"/>
      <point x="472" y="1152" type="line" smooth="yes"/>
      <point x="223" y="1152"/>
      <point x="119" y="1004"/>
      <point x="119" y="853" type="curve" smooth="yes"/>
      <point x="119" y="698.507"/>
      <point x="234.242" y="546.995"/>
      <point x="452.843" y="546.995" type="curve" smooth="yes"/>
      <point x="453.561" y="546.995"/>
      <point x="454.28" y="546.997"/>
      <point x="455" y="547" type="curve" smooth="yes"/>
      <point x="706" y="547" type="line"/>
      <point x="706" y="87" type="line"/>
      <point x="498" y="87" type="line"/>
    </contour>
    <contour>
      <point x="516" y="647" type="line"/>
      <point x="516" y="1063" type="line"/>
      <point x="706" y="1063" type="line"/>
      <point x="706" y="647" type="line"/>
    </contour>
  </outline>
</glyph>
<glyph name="onequarter" format="1">
  <advance width="1785"/>
  <unicode hex="00BC"/>
  <outline>
    <contour>
      <point x="1320" y="0" type="line"/>
      <point x="1625" y="0" type="line"/>
      <point x="1625" y="71" type="line"/>
      <point x="1523" y="71" type="line"/>
      <point x="1523" y="248" type="line"/>
      <point x="1640" y="248" type="line"/>
      <point x="1640" y="317" type="line"/>
      <point x="1523" y="317" type="line"/>
      <point x="1523" y="812" type="line"/>
      <point x="1431" y="812" type="line"/>
      <point x="1077" y="324" type="line"/>
      <point x="1091" y="248" type="line"/>
      <point x="1434" y="248" type="line"/>
      <point x="1434" y="71" type="line"/>
      <point x="1320" y="71" type="line"/>
    </contour>
    <contour>
      <point x="179" y="348" type="line"/>
      <point x="514" y="348" type="line"/>
      <point x="514" y="419" type="line"/>
      <point x="396" y="419" type="line"/>
      <point x="396" y="1152" type="line"/>
      <point x="174" y="1132" type="line"/>
      <point x="174" y="1061" type="line"/>
      <point x="301" y="1069" type="line"/>
      <point x="301" y="419" type="line"/>
      <point x="179" y="419" type="line"/>
    </contour>
    <contour>
      <point x="471" y="-28" type="line"/>
      <point x="562" y="-28" type="line"/>
      <point x="1364" y="1208" type="line"/>
      <point x="1276" y="1208" type="line"/>
    </contour>
    <contour>
      <point x="1163" y="317" type="line"/>
      <point x="1434" y="697" type="line"/>
      <point x="1434" y="317" type="line"/>
    </contour>
  </outline>
</glyph>
<glyph name="onehalf" format="1">
  <advance width="1916"/>
  <unicode hex="00BD"/>
  <outline>
    <contour>
      <point x="1231" y="0" type="line"/>
      <point x="1784" y="0" type="line"/>
      <point x="1783" y="223" type="line"/>
      <point x="1707" y="223" type="line"/>
      <point x="1707" y="71" type="line"/>
      <point x="1346" y="71" type="line"/>
      <point x="1575" y="289" type="line" smooth="yes"/>
      <point x="1673" y="382"/>
      <point x="1762" y="472"/>
      <point x="1762" y="588" type="curve" smooth="yes"/>
      <point x="1762" y="733"/>
      <point x="1659" y="817"/>
      <point x="1499" y="817" type="curve" smooth="yes"/>
      <point x="1318" y="817"/>
      <point x="1220" y="706"/>
      <point x="1220" y="566" type="curve" smooth="yes"/>
      <point x="1220" y="537"/>
      <point x="1224" y="508"/>
      <point x="1233" y="477" type="curve"/>
      <point x="1318" y="477" type="line"/>
      <point x="1312" y="504"/>
      <point x="1308" y="531"/>
      <point x="1308" y="555" type="curve" smooth="yes"/>
      <point x="1308" y="665"/>
      <point x="1373" y="743"/>
      <point x="1500" y="743" type="curve" smooth="yes"/>
      <point x="1613.74" y="743"/>
      <point x="1670.04" y="676.965"/>
      <point x="1670.04" y="584.253" type="curve" smooth="yes"/>
      <point x="1670.04" y="499.987"/>
      <point x="1603.7" y="431.762"/>
      <point x="1516" y="348" type="curve" smooth="yes"/>
      <point x="1231" y="73" type="line"/>
    </contour>
    <contour>
      <point x="180" y="348" type="line"/>
      <point x="514" y="348" type="line"/>
      <point x="514" y="419" type="line"/>
      <point x="396" y="419" type="line"/>
      <point x="396" y="1152" type="line"/>
      <point x="174" y="1132" type="line"/>
      <point x="175" y="1061" type="line"/>
      <point x="301" y="1069" type="line"/>
      <point x="301" y="419" type="line"/>
      <point x="180" y="419" type="line"/>
    </contour>
    <contour>
      <point x="475" y="-28" type="line"/>
      <point x="567" y="-28" type="line"/>
      <point x="1369" y="1208" type="line"/>
      <point x="1280" y="1208" type="line"/>
    </contour>
  </outline>
</glyph>
<glyph name="Oslash" format="1">
  <advance width="1515"/>
  <unicode hex="00D8"/>
  <outline>
    <component base="O" xOffset="4" yOffset="-4"/>
    <contour>
      <point x="286" y="-74" type="line"/>
      <point x="1258" y="1171" type="line"/>
      <point x="1192" y="1218" type="line"/>
      <point x="218" y="-26" type="line"/>
    </contour>
  </outline>
</glyph>
<glyph name="ae" format="1">
  <advance width="1547"/>
  <unicode hex="00E6"/>
  <outline>
    <contour>
      <point x="394" y="-22" type="curve" smooth="yes"/>
      <point x="503" y="-22"/>
      <point x="629" y="-4"/>
      <point x="767" y="101" type="curve"/>
      <point x="844" y="18"/>
      <point x="953" y="-20"/>
      <point x="1083" y="-20" type="curve" smooth="yes"/>
      <point x="1253" y="-20"/>
      <point x="1361" y="39"/>
      <point x="1449" y="135" type="curve"/>
      <point x="1402" y="213" type="line"/>
      <point x="1304" y="120"/>
      <point x="1196" y="79"/>
      <point x="1088" y="79" type="curve" smooth="yes"/>
      <point x="899" y="79"/>
      <point x="800" y="189"/>
      <point x="796" y="377" type="curve"/>
      <point x="1452" y="377" type="line"/>
      <point x="1452" y="656"/>
      <point x="1307" y="826"/>
      <point x="1077" y="826" type="curve" smooth="yes"/>
      <point x="929" y="826"/>
      <point x="797" y="758"/>
      <point x="749" y="633" type="curve"/>
      <point x="721" y="760"/>
      <point x="619" y="826"/>
      <point x="456" y="826" type="curve" smooth="yes"/>
      <point x="333" y="826"/>
      <point x="205" y="786"/>
      <point x="123" y="718" type="curve"/>
      <point x="167" y="637" type="line"/>
      <point x="243" y="694"/>
      <point x="354" y="729"/>
      <point x="451" y="729" type="curve" smooth="yes"/>
      <point x="587" y="729"/>
      <point x="664" y="672"/>
      <point x="664" y="528" type="curve" smooth="yes"/>
      <point x="664" y="442" type="line"/>
      <point x="627" y="449"/>
      <point x="501" y="454"/>
      <point x="467" y="454" type="curve" smooth="yes"/>
      <point x="259" y="454"/>
      <point x="96" y="398"/>
      <point x="96" y="216" type="curve" smooth="yes"/>
      <point x="96" y="40"/>
      <point x="252" y="-22"/>
    </contour>
    <contour>
      <point x="410" y="64" type="curve" smooth="yes"/>
      <point x="300" y="64"/>
      <point x="219" y="106"/>
      <point x="219" y="220" type="curve" smooth="yes"/>
      <point x="219" y="346"/>
      <point x="325" y="374"/>
      <point x="473" y="374" type="curve" smooth="yes"/>
      <point x="503" y="374"/>
      <point x="636" y="368"/>
      <point x="665" y="366" type="curve"/>
      <point x="668" y="306"/>
      <point x="684" y="229"/>
      <point x="713" y="173" type="curve"/>
      <point x="640" y="105"/>
      <point x="545" y="64"/>
    </contour>
    <contour>
      <point x="1325" y="457" type="curve"/>
      <point x="798" y="458" type="line"/>
      <point x="811" y="605"/>
      <point x="905" y="730"/>
      <point x="1077" y="730" type="curve" smooth="yes"/>
      <point x="1230" y="730"/>
      <point x="1319" y="623"/>
    </contour>
  </outline>
</glyph>
<glyph name="thorn" format="1">
  <advance width="1084"/>
  <unicode hex="00FE"/>
  <outline>
    <contour>
      <point x="598" y="0" type="curve" smooth="yes"/>
      <point x="828.284" y="0"/>
      <point x="1017.02" y="159.6"/>
      <point x="1017.02" y="433.627" type="curve" smooth="yes"/>
      <point x="1017.02" y="697.732"/>
      <point x="846.691" y="846"/>
      <point x="622" y="846" type="curve" smooth="yes"/>
      <point x="503" y="846"/>
      <point x="373" y="793"/>
      <point x="276" y="696" type="curve"/>
      <point x="287" y="602" type="line"/>
      <point x="377" y="696"/>
      <point x="491" y="747"/>
      <point x="589" y="747" type="curve" smooth="yes"/>
      <point x="761" y="747"/>
      <point x="883" y="627"/>
      <point x="883" y="422" type="curve" smooth="yes"/>
      <point x="883" y="213"/>
      <point x="754" y="97"/>
      <point x="577" y="97" type="curve" smooth="yes"/>
      <point x="475" y="97"/>
      <point x="364" y="149"/>
      <point x="286" y="241" type="curve"/>
      <point x="279" y="157" type="line"/>
      <point x="358" y="54"/>
      <point x="479" y="0"/>
    </contour>
    <contour>
      <point x="27" y="-353" type="line"/>
      <point x="313" y="-353" type="line"/>
      <point x="315" y="1152" type="line"/>
      <point x="34" y="1152" type="line"/>
      <point x="34" y="1057" type="line"/>
      <point x="183" y="1057" type="line"/>
      <point x="183" y="-257" type="line"/>
      <point x="27" y="-257" type="line"/>
    </contour>
  </outline>
</glyph>
<glyph name="Hbar" format="1">
  <advance width="1428"/>
  <unicode hex="0126"/>
  <outline>
    <component base="H"/>
    <contour>
      <point x="129" y="812" type="line"/>
      <point x="1319" y="812" type="line"/>
      <point x="1319" y="887" type="line"/>
      <point x="129" y="887" type="line"/>
    </contour>
  </outline>
</glyph>
<glyph name="eng" format="1">
  <advance width="1046"/>
  <unicode hex="014B"/>
  <outline>
    <contour>
      <point x="43" y="0" type="line"/>
      <point x="483" y="0" type="line"/>
      <point x="483" y="93" type="line"/>
      <point x="333" y="93" type="line"/>
      <point x="333" y="804" type="line"/>
      <point x="44" y="804" type="line"/>
      <point x="44" y="711" type="line"/>
      <point x="204" y="711" type="line"/>
      <point x="204" y="93" type="line"/>
      <point x="43" y="93" type="line"/>
    </contour>
    <contour>
      <point x="481" y="-336" type="line"/>
      <point x="718" y="-336"/>
      <point x="895" y="-239"/>
      <point x="895" y="20" type="curve" smooth="yes"/>
      <point x="895" y="562" type="line" smooth="yes"/>
      <point x="895" y="731"/>
      <point x="781" y="826"/>
      <point x="635" y="826" type="curve" smooth="yes"/>
      <point x="514" y="826"/>
      <point x="381" y="757"/>
      <point x="262" y="668" type="curve"/>
      <point x="262" y="575" type="line"/>
      <point x="367" y="656"/>
      <point x="500" y="723"/>
      <point x="603" y="723" type="curve" smooth="yes"/>
      <point x="703" y="723"/>
      <point x="766" y="657"/>
      <point x="766" y="543" type="curve" smooth="yes"/>
      <point x="766" y="9" type="line" smooth="yes"/>
      <point x="766" y="-159"/>
      <point x="679" y="-241"/>
      <point x="482" y="-241" type="curve"/>
    </contour>
  </outline>
</glyph>
<glyph name="dotlessj" format="1">
  <advance width="487"/>
  <unicode hex="0237"/>
  <outline>
    <contour>
      <point x="12" y="-297" type="line"/>
      <point x="98" y="-297" type="line" smooth="yes"/>
      <point x="355" y="-297"/>
      <point x="359" y="-147"/>
      <point x="359" y="11" type="curve" smooth="yes"/>
      <point x="359" y="804" type="line"/>
      <point x="65" y="804" type="line"/>
      <point x="65" y="712" type="line"/>
      <point x="228" y="712" type="line"/>
      <point x="228" y="-24" type="line" smooth="yes"/>
      <point x="228" y="-142"/>
      <point x="215" y="-196"/>
      <point x="93" y="-196" type="curve" smooth="yes"/>
      <point x="12" y="-196" type="line"/>
    </contour>
  </outline>
</glyph>
<glyph name="caron" format="1">
  <advance width="483"/>
  <unicode hex="02C7"/>
  <outline>
    <contour>
      <point x="180" y="920" type="line"/>
      <point x="300" y="920" type="line"/>
      <point x="465" y="1228" type="line"/>
      <point x="372" y="1228" type="line"/>
      <point x="240" y="996" type="line"/>
      <point x="105" y="1228" type="line"/>
      <point x="12" y="1228" type="line"/>
    </contour>
  </outline>
</glyph>
<glyph name="uni02C9" format="1">
  <advance width="600"/>
  <unicode hex="02C9"/>
  <outline>
    <contour>
      <point x="89" y="931" type="line"/>
      <point x="507" y="931" type="line"/>
      <point x="507" y="1019" type="line"/>
      <point x="89" y="1019" type="line"/>
    </contour>
  </outline>
</glyph>
<glyph name="tilde" format="1">
  <advance width="544"/>
  <unicode hex="02DC"/>
  <outline>
    <contour>
      <point x="403" y="923" type="curve" smooth="yes"/>
      <point x="403.603" y="922.993"/>
      <point x="404.203" y="922.99"/>
      <point x="404.801" y="922.99" type="curve" smooth="yes"/>
      <point x="492.459" y="922.99"/>
      <point x="526.061" y="995.657"/>
      <point x="535" y="1092" type="curve"/>
      <point x="481" y="1092" type="line"/>
      <point x="468" y="1034"/>
      <point x="447" y="1019"/>
      <point x="409" y="1019" type="curve" smooth="yes"/>
      <point x="347" y="1019"/>
      <point x="235" y="1097"/>
      <point x="158" y="1097" type="curve" smooth="yes"/>
      <point x="81" y="1097"/>
      <point x="31" y="1043"/>
      <point x="20" y="928" type="curve"/>
      <point x="76" y="928" type="line"/>
      <point x="87" y="982"/>
      <point x="105" y="1000"/>
      <point x="140" y="1000" type="curve" smooth="yes"/>
      <point x="208" y="1000"/>
      <point x="311" y="923"/>
    </contour>
  </outline>
</glyph>
<glyph name="dblgravecmb" format="1">
  <advance width="662"/>
  <unicode hex="030F"/>
  <outline>
    <contour>
      <point x="198" y="979" type="line"/>
      <point x="279" y="979" type="line"/>
      <point x="165" y="1288" type="line"/>
      <point x="20" y="1288" type="line"/>
    </contour>
    <contour>
      <point x="456" y="979" type="line"/>
      <point x="537" y="979" type="line"/>
      <point x="424" y="1288" type="line"/>
      <point x="278" y="1288" type="line"/>
    </contour>
  </outline>
</glyph>
<glyph name="commaaccent" format="1">
  <advance width="381"/>
  <unicode hex="0326"/>
  <outline>
    <contour>
      <point x="130" y="-468" type="line" smooth="yes"/>
      <point x="130.818" y="-468.006"/>
      <point x="131.633" y="-468.01"/>
      <point x="132.444" y="-468.01" type="curve" smooth="yes"/>
      <point x="259.645" y="-468.01"/>
      <point x="310" y="-390.277"/>
      <point x="310" y="-277" type="curve" smooth="yes"/>
      <point x="310" y="-111" type="line"/>
      <point x="137" y="-111" type="line"/>
      <point x="137" y="-270" type="line"/>
      <point x="235" y="-270" type="line"/>
      <point x="235" y="-351"/>
      <point x="208" y="-400"/>
      <point x="130" y="-411" type="curve"/>
    </contour>
  </outline>
</glyph>
<glyph name="mu" format="1">
  <advance width="1041"/>
  <unicode hex="03BC"/>
  <outline>
    <component base="u"/>
    <contour>
      <point x="167" y="-284" type="line"/>
      <point x="296" y="-284" type="line"/>
      <point x="296" y="400" type="line"/>
      <point x="167" y="400" type="line"/>
    </contour>
  </outline>
</glyph>
<glyph name="pi" format="1">
  <advance width="1154"/>
  <unicode hex="03C0"/>
  <outline>
    <contour>
      <point x="899" y="-14" type="curve" smooth="yes"/>
      <point x="942" y="-14"/>
      <point x="993" y="-2"/>
      <point x="1035" y="21" type="curve"/>
      <point x="1035" y="89" type="line"/>
      <point x="1002" y="80"/>
      <point x="971" y="74"/>
      <point x="944" y="74" type="curve" smooth="yes"/>
      <point x="865" y="74"/>
      <point x="817" y="124"/>
      <point x="817" y="235" type="curve" smooth="yes"/>
      <point x="817" y="328"/>
      <point x="842" y="513"/>
      <point x="866" y="675" type="curve"/>
      <point x="1054" y="675" type="line"/>
      <point x="1054" y="804" type="line"/>
      <point x="346" y="804" type="line" smooth="yes"/>
      <point x="201" y="804"/>
      <point x="147" y="691"/>
      <point x="147" y="560" type="curve"/>
      <point x="214" y="560" type="line"/>
      <point x="219" y="638"/>
      <point x="252" y="675"/>
      <point x="309" y="675" type="curve" smooth="yes"/>
      <point x="393" y="675" type="line"/>
      <point x="332" y="268" type="line"/>
      <point x="308" y="117"/>
      <point x="247" y="59"/>
      <point x="141" y="59" type="curve"/>
      <point x="141" y="-2" type="line"/>
      <point x="372" y="-2"/>
      <point x="433" y="69"/>
      <point x="447" y="241" type="curve"/>
      <point x="486" y="675" type="line"/>
      <point x="790" y="675" type="line"/>
      <point x="746" y="522"/>
      <point x="698" y="333"/>
      <point x="698" y="214" type="curve" smooth="yes"/>
      <point x="698" y="67"/>
      <point x="757" y="-14"/>
    </contour>
  </outline>
</glyph>
<glyph name="quoteleft" format="1">
  <advance width="462"/>
  <unicode hex="2018"/>
  <outline>
    <contour>
      <point x="135" y="904" type="line"/>
      <point x="287" y="904" type="line"/>
      <point x="287" y="1062" type="line"/>
      <point x="217" y="1062" type="line"/>
      <point x="218" y="1146"/>
      <point x="231" y="1173"/>
      <point x="296" y="1192" type="curve"/>
      <point x="296" y="1258" type="line"/>
      <point x="174" y="1257"/>
      <point x="135" y="1177"/>
      <point x="135" y="1062" type="curve" smooth="yes"/>
    </contour>
  </outline>
</glyph>
<glyph name="daggerdbl" format="1">
  <advance width="653"/>
  <unicode hex="2021"/>
  <outline>
    <contour>
      <point x="250" y="-120" type="line"/>
      <point x="406" y="-120" type="line"/>
      <point x="359" y="156" type="line"/>
      <point x="619" y="126" type="line"/>
      <point x="619" y="260" type="line"/>
      <point x="368" y="225" type="line"/>
      <point x="369.6" y="235.4"/>
      <point x="370.08" y="279.08"/>
      <point x="370.08" y="331.848" type="curve" smooth="yes"/>
      <point x="370.08" y="411"/>
      <point x="369" y="510.6"/>
      <point x="369" y="549" type="curve" smooth="yes"/>
      <point x="369" y="587.4"/>
      <point x="370.08" y="687.72"/>
      <point x="370.08" y="767.664" type="curve" smooth="yes"/>
      <point x="370.08" y="820.96"/>
      <point x="369.6" y="865.2"/>
      <point x="368" y="876" type="curve"/>
      <point x="619" y="841" type="line"/>
      <point x="619" y="975" type="line"/>
      <point x="359" y="945" type="line"/>
      <point x="406" y="1221" type="line"/>
      <point x="250" y="1221" type="line"/>
      <point x="296" y="945" type="line"/>
      <point x="34" y="975" type="line"/>
      <point x="34" y="841" type="line"/>
      <point x="286" y="876" type="line"/>
      <point x="284.077" y="865.615"/>
      <point x="283.485" y="824.905"/>
      <point x="283.485" y="775.092" type="curve" smooth="yes"/>
      <point x="283.485" y="695.391"/>
      <point x="285" y="592.385"/>
      <point x="285" y="553" type="curve" smooth="yes"/>
      <point x="285" y="513.615"/>
      <point x="283.485" y="408.337"/>
      <point x="283.485" y="327.121" type="curve" smooth="yes"/>
      <point x="283.485" y="276.361"/>
      <point x="284.077" y="235"/>
      <point x="286" y="225" type="curve"/>
      <point x="34" y="260" type="line"/>
      <point x="34" y="126" type="line"/>
      <point x="296" y="156" type="line"/>
    </contour>
  </outline>
</glyph>
<glyph name="estimated" format="1">
  <advance width="891"/>
  <unicode hex="212E"/>
  <outline>
    <contour>
      <point x="562" y="-17" type="curve" smooth="yes"/>
      <point x="702" y="-17"/>
      <point x="830" y="38"/>
      <point x="928" y="127" type="curve"/>
      <point x="902" y="158" type="line"/>
      <point x="809.027" y="80.6858"/>
      <point x="702.646" y="35.936"/>
      <point x="593.166" y="35.936" type="curve" smooth="yes"/>
      <point x="410.469" y="35.936"/>
      <point x="286.094" y="179.443"/>
      <point x="273" y="397" type="curve"/>
      <point x="924" y="397" type="line"/>
      <point x="924" y="659"/>
      <point x="792" y="823"/>
      <point x="543" y="823" type="curve" smooth="yes"/>
      <point x="291" y="823"/>
      <point x="122" y="663"/>
      <point x="122" y="413" type="curve" smooth="yes"/>
      <point x="122" y="141.85"/>
      <point x="320.751" y="-17.0047"/>
      <point x="559.75" y="-17.0047" type="curve" smooth="yes"/>
      <point x="560.5" y="-17.0047"/>
      <point x="561.25" y="-17.0031"/>
    </contour>
    <contour>
      <point x="275" y="447" type="line"/>
      <point x="280.977" y="660.195"/>
      <point x="408.039" y="792.006"/>
      <point x="560.274" y="792.006" type="curve" smooth="yes"/>
      <point x="560.849" y="792.006"/>
      <point x="561.424" y="792.004"/>
      <point x="562" y="792" type="curve" smooth="yes"/>
      <point x="707" y="792"/>
      <point x="835" y="664"/>
      <point x="840" y="447" type="curve"/>
    </contour>
  </outline>
</glyph>
<glyph name="partialdiff" format="1">
  <advance width="1011"/>
  <unicode hex="2202"/>
  <outline>
    <contour>
      <point x="401" y="-20" type="curve" smooth="yes"/>
      <point x="748" y="-20"/>
      <point x="868" y="384"/>
      <point x="868" y="679" type="curve" smooth="yes"/>
      <point x="868" y="1003"/>
      <point x="744" y="1204"/>
      <point x="496" y="1204" type="curve" smooth="yes"/>
      <point x="342" y="1204"/>
      <point x="250" y="1135"/>
      <point x="250" y="1040" type="curve" smooth="yes"/>
      <point x="250" y="985"/>
      <point x="285" y="950"/>
      <point x="367" y="950" type="curve"/>
      <point x="367" y="1052"/>
      <point x="439" y="1128"/>
      <point x="548" y="1128" type="curve" smooth="yes"/>
      <point x="701.802" y="1128"/>
      <point x="796.52" y="900.357"/>
      <point x="796.52" y="630.537" type="curve" smooth="yes"/>
      <point x="796.52" y="610.891"/>
      <point x="796.018" y="591.021"/>
      <point x="795" y="571" type="curve"/>
      <point x="811" y="576" type="line"/>
      <point x="788" y="655"/>
      <point x="706" y="732"/>
      <point x="561" y="732" type="curve" smooth="yes"/>
      <point x="246" y="732"/>
      <point x="124" y="436"/>
      <point x="124" y="258" type="curve" smooth="yes"/>
      <point x="124" y="113"/>
      <point x="193" y="-20"/>
    </contour>
    <contour>
      <point x="457" y="55" type="curve" smooth="yes"/>
      <point x="334" y="55"/>
      <point x="285" y="141"/>
      <point x="285" y="252" type="curve" smooth="yes"/>
      <point x="285" y="395"/>
      <point x="368" y="659"/>
      <point x="593" y="659" type="curve" smooth="yes"/>
      <point x="694" y="659"/>
      <point x="763" y="611"/>
      <point x="786" y="519" type="curve"/>
      <point x="758" y="288"/>
      <point x="633" y="55"/>
    </contour>
  </outline>
</glyph>
<glyph name="summation" format="1">
  <advance width="1269"/>
  <unicode hex="2211"/>
  <outline>
    <contour>
      <point x="124" y="0" type="line"/>
      <point x="1109" y="0" type="line"/>
      <point x="1109" y="358" type="line"/>
      <point x="998" y="358" type="line"/>
      <point x="998" y="94" type="line"/>
      <point x="379" y="94" type="line"/>
      <point x="758" y="569" type="line"/>
      <point x="758" y="621" type="line"/>
      <point x="414" y="1059" type="line"/>
      <point x="986" y="1059" type="line"/>
      <point x="986" y="800" type="line"/>
      <point x="1096" y="800" type="line"/>
      <point x="1096" y="1152" type="line"/>
      <point x="124" y="1152" type="line"/>
      <point x="124" y="1059" type="line"/>
      <point x="278" y="1059" type="line"/>
      <point x="653" y="577" type="line"/>
      <point x="275" y="94" type="line"/>
      <point x="124" y="94" type="line"/>
    </contour>
  </outline>
</glyph>
<glyph name="approxequal" format="1">
  <advance width="961"/>
  <unicode hex="2248"/>
  <outline>
    <contour>
      <point x="850" y="885" type="line"/>
      <point x="791" y="836"/>
      <point x="726" y="799"/>
      <point x="666" y="799" type="curve" smooth="yes"/>
      <point x="620" y="799"/>
      <point x="580" y="811"/>
      <point x="502" y="843" type="curve" smooth="yes"/>
      <point x="405" y="883"/>
      <point x="358" y="896"/>
      <point x="293" y="896" type="curve" smooth="yes"/>
      <point x="221" y="896"/>
      <point x="159" y="871"/>
      <point x="104" y="818" type="curve"/>
      <point x="104" y="706" type="line"/>
      <point x="156" y="756"/>
      <point x="222" y="790"/>
      <point x="279" y="790" type="curve" smooth="yes"/>
      <point x="331" y="790"/>
      <point x="374" y="777"/>
      <point x="453" y="744" type="curve" smooth="yes"/>
      <point x="547" y="704"/>
      <point x="592" y="693"/>
      <point x="652" y="693" type="curve" smooth="yes"/>
      <point x="727" y="693"/>
      <point x="792" y="719"/>
      <point x="850" y="774" type="curve"/>
    </contour>
    <contour>
      <point x="850" y="606" type="line"/>
      <point x="791" y="556"/>
      <point x="726" y="519"/>
      <point x="666" y="519" type="curve" smooth="yes"/>
      <point x="620" y="519"/>
      <point x="580" y="531"/>
      <point x="502" y="564" type="curve" smooth="yes"/>
      <point x="405" y="604"/>
      <point x="358" y="617"/>
      <point x="293" y="617" type="curve" smooth="yes"/>
      <point x="221" y="617"/>
      <point x="159" y="592"/>
      <point x="104" y="539" type="curve"/>
      <point x="104" y="426" type="line"/>
      <point x="156" y="477"/>
      <point x="222" y="511"/>
      <point x="279" y="511" type="curve" smooth="yes"/>
      <point x="331" y="511"/>
      <point x="374" y="497"/>
      <point x="453" y="464" type="curve" smooth="yes"/>
      <point x="547" y="425"/>
      <point x="592" y="413"/>
      <point x="652" y="413" type="curve" smooth="yes"/>
      <point x="727" y="413"/>
      <point x="792" y="440"/>
      <point x="850" y="494" type="curve"/>
    </contour>
  </outline>
</glyph>
<glyph name="lozenge" format="1">
  <advance width="1053"/>
  <unicode hex="25CA"/>
  <outline>
    <contour>
      <point x="492" y="-14" type="line"/>
      <point x="562" y="-14" type="line"/>
      <point x="1013" y="606" type="line"/>
      <point x="562" y="1221" type="line"/>
      <point x="492" y="1221" type="line"/>
      <point x="40" y="606" type="line"/>
    </contour>
    <contour>
      <point x="529" y="93" type="line"/>
      <point x="177" y="606" type="line"/>
      <point x="529" y="1110" type="line"/>
      <point x="878" y="606" type="line"/>
    </contour>
  </outline>
</glyph>
<glyph name="ff" format="1">
  <advance width="1296"/>
  <unicode hex="FB00"/>
  <outline>
    <contour>
      <point x="688" y="0" type="line"/>
      <point x="1135" y="0" type="line"/>
      <point x="1135" y="93" type="line"/>
      <point x="956" y="93" type="line"/>
      <point x="956" y="711" type="line"/>
      <point x="1154" y="711" type="line"/>
      <point x="1154" y="804" type="line"/>
      <point x="956" y="804" type="line"/>
      <point x="956" y="988" type="line" smooth="yes"/>
      <point x="956" y="1080"/>
      <point x="998" y="1121"/>
      <point x="1050" y="1121" type="curve" smooth="yes"/>
      <point x="1108" y="1121"/>
      <point x="1143" y="1089"/>
      <point x="1154" y="1009" type="curve"/>
      <point x="1254" y="1038" type="line"/>
      <point x="1243" y="1177"/>
      <point x="1142" y="1215"/>
      <point x="1047" y="1215" type="curve" smooth="yes"/>
      <point x="909" y="1215"/>
      <point x="826" y="1128"/>
      <point x="826" y="987" type="curve" smooth="yes"/>
      <point x="826" y="804" type="line"/>
      <point x="379" y="804" type="line"/>
      <point x="379" y="987" type="line" smooth="yes"/>
      <point x="379" y="1080"/>
      <point x="417" y="1122"/>
      <point x="478" y="1122" type="curve" smooth="yes"/>
      <point x="543" y="1122"/>
      <point x="570" y="1079"/>
      <point x="580" y="1009" type="curve"/>
      <point x="681" y="1038" type="line"/>
      <point x="672" y="1167"/>
      <point x="579" y="1215"/>
      <point x="474" y="1215" type="curve" smooth="yes"/>
      <point x="322" y="1215"/>
      <point x="247" y="1126"/>
      <point x="247" y="988" type="curve" smooth="yes"/>
      <point x="247" y="804" type="line"/>
      <point x="91" y="804" type="line"/>
      <point x="91" y="711" type="line"/>
      <point x="247" y="711" type="line"/>
      <point x="247" y="94" type="line"/>
      <point x="90" y="94" type="line"/>
      <point x="90" y="0" type="line"/>
      <point x="583" y="0" type="line"/>
      <point x="583" y="94" type="line"/>
      <point x="379" y="94" type="line"/>
      <point x="379" y="711" type="line"/>
      <point x="826" y="711" type="line"/>
      <point x="826" y="93" type="line"/>
      <point x="688" y="93" type="line"/>
    </contour>
  </outline>
</glyph>
<glyph name="caron.alt" format="1">
  <advance width="600"/>
  <outline>
    <contour>
      <point x="169" y="804" type="move" name="_caron.alt"/>
    </contour>
    <contour>
      <point x="192" y="817" type="line"/>
      <point x="321" y="817"/>
      <point x="372" y="894"/>
      <point x="371" y="1008" type="curve"/>
      <point x="371" y="1174" type="line"/>
      <point x="199" y="1174" type="line"/>
      <point x="199" y="1015" type="line"/>
      <point x="297" y="1015" type="line"/>
      <point x="297" y="934"/>
      <point x="270" y="886"/>
      <point x="192" y="874" type="curve"/>
    </contour>
  </outline>
</glyph>
